<?xml version="1.0" encoding="UTF-8" standalone="no"?>
<!-- Created with Inkscape (http://www.inkscape.org/) -->

<svg
   width="270.93332mm"
   height="8.6284142mm"
   viewBox="0 0 270.93332 8.6284142"
   version="1.1"
   id="svg1"
   xml:space="preserve"
   xmlns:inkscape="http://www.inkscape.org/namespaces/inkscape"
   xmlns:sodipodi="http://sodipodi.sourceforge.net/DTD/sodipodi-0.dtd"
   xmlns="http://www.w3.org/2000/svg"
   xmlns:svg="http://www.w3.org/2000/svg"><sodipodi:namedview
     id="namedview1"
     pagecolor="#ffffff"
     bordercolor="#000000"
     borderopacity="0.25"
     inkscape:showpageshadow="2"
     inkscape:pageopacity="0.0"
     inkscape:pagecheckerboard="0"
     inkscape:deskcolor="#d1d1d1"
     inkscape:document-units="mm" /><defs
     id="defs1" /><g
     inkscape:label="Layer 1"
     inkscape:groupmode="layer"
     id="layer1"
     transform="translate(38.653455,333.04272)"><path
       id="path1"
       style="fill:#008456;fill-opacity:1;stroke:none;stroke-width:3.70001"
       d="m -30.427083,-333.04272 c -0.387616,-1.1e-4 -0.701883,0.31415 -0.701766,0.70177 2.33e-4,0.38737 0.314397,0.70136 0.701766,0.70124 0.387123,-2.3e-4 0.7005,-0.31412 0.700732,-0.70124 1.17e-4,-0.38738 -0.313362,-0.70154 -0.700732,-0.70177 z m 16.933333,0 c -0.387616,-1.1e-4 -0.701883,0.31415 -0.701766,0.70177 2.33e-4,0.38737 0.314397,0.70136 0.701766,0.70124 0.387125,-2.3e-4 0.7005,-0.31412 0.700732,-0.70124 1.17e-4,-0.38738 -0.31336,-0.70154 -0.700732,-0.70177 z m 16.9333333,0 c -0.3876152,-1.1e-4 -0.7018829,0.31415 -0.7017659,0.70177 2.33e-4,0.38737 0.3143977,0.70136 0.7017659,0.70124 0.3871242,-2.3e-4 0.7005005,-0.31412 0.7007325,-0.70124 1.17e-4,-0.38738 -0.3133613,-0.70154 -0.7007325,-0.70177 z m 16.9333337,0 c -0.387616,-1.1e-4 -0.701883,0.31415 -0.701766,0.70177 2.33e-4,0.38737 0.314397,0.70136 0.701766,0.70124 0.387123,-2.3e-4 0.7005,-0.31412 0.700732,-0.70124 1.17e-4,-0.38738 -0.313362,-0.70154 -0.700732,-0.70177 z m 16.933333,0 c -0.387616,-1.1e-4 -0.701883,0.31415 -0.701766,0.70177 2.33e-4,0.38737 0.314397,0.70136 0.701766,0.70124 0.387125,-2.3e-4 0.7005,-0.31412 0.700732,-0.70124 1.17e-4,-0.38738 -0.31336,-0.70154 -0.700732,-0.70177 z m 16.933333,0 c -0.387614,-1.1e-4 -0.701883,0.31415 -0.701766,0.70177 2.33e-4,0.38737 0.314399,0.70136 0.701766,0.70124 0.387125,-2.3e-4 0.700501,-0.31412 0.700733,-0.70124 1.17e-4,-0.38738 -0.313361,-0.70154 -0.700733,-0.70177 z m 16.933334,0 c -0.387616,-1.1e-4 -0.701883,0.31415 -0.701766,0.70177 2.33e-4,0.38737 0.314397,0.70136 0.701766,0.70124 0.387123,-2.3e-4 0.7005,-0.31412 0.700732,-0.70124 1.17e-4,-0.38738 -0.313362,-0.70154 -0.700732,-0.70177 z m 16.933333,0 c -0.387616,-1.1e-4 -0.701883,0.31415 -0.701766,0.70177 2.33e-4,0.38737 0.314397,0.70136 0.701766,0.70124 0.387125,-2.3e-4 0.7005,-0.31412 0.700732,-0.70124 1.17e-4,-0.38738 -0.31336,-0.70154 -0.700732,-0.70177 z m 16.93333,0 c -0.38762,-1.1e-4 -0.70188,0.31415 -0.70176,0.70177 2.3e-4,0.38737 0.31439,0.70136 0.70176,0.70124 0.38712,-2.3e-4 0.70051,-0.31412 0.70074,-0.70124 1.2e-4,-0.38738 -0.31337,-0.70154 -0.70074,-0.70177 z m 16.93334,0 c -0.38762,-1.1e-4 -0.70188,0.31415 -0.70177,0.70177 2.4e-4,0.38737 0.3144,0.70136 0.70177,0.70124 0.38712,-2.3e-4 0.7005,-0.31412 0.70073,-0.70124 1.2e-4,-0.38738 -0.31336,-0.70154 -0.70073,-0.70177 z m 16.93333,0 c -0.38761,-1.1e-4 -0.70189,0.31415 -0.70177,0.70177 2.3e-4,0.38737 0.3144,0.70136 0.70177,0.70124 0.38713,-2.3e-4 0.70049,-0.31412 0.70073,-0.70124 1.1e-4,-0.38738 -0.31336,-0.70154 -0.70073,-0.70177 z m 16.93333,0 c -0.38762,-1.1e-4 -0.70188,0.31415 -0.70176,0.70177 2.3e-4,0.38737 0.31439,0.70136 0.70176,0.70124 0.38712,-2.3e-4 0.70051,-0.31412 0.70074,-0.70124 1.2e-4,-0.38738 -0.31337,-0.70154 -0.70074,-0.70177 z m 16.93334,0 c -0.38762,-1.1e-4 -0.70188,0.31415 -0.70177,0.70177 2.4e-4,0.38737 0.3144,0.70136 0.70177,0.70124 0.38712,-2.3e-4 0.7005,-0.31412 0.70073,-0.70124 1.2e-4,-0.38738 -0.31336,-0.70154 -0.70073,-0.70177 z m 16.93333,0 c -0.38761,-1.1e-4 -0.70189,0.31415 -0.70177,0.70177 2.3e-4,0.38737 0.3144,0.70136 0.70177,0.70124 0.38713,-2.3e-4 0.70049,-0.31412 0.70073,-0.70124 1.1e-4,-0.38738 -0.31336,-0.70154 -0.70073,-0.70177 z m 16.93333,0 c -0.38762,-1.1e-4 -0.70188,0.31415 -0.70176,0.70177 2.3e-4,0.38737 0.31439,0.70136 0.70176,0.70124 0.38712,-2.3e-4 0.70051,-0.31412 0.70074,-0.70124 1.2e-4,-0.38738 -0.31337,-0.70154 -0.70074,-0.70177 z m 16.93334,0 c -0.38762,-1.1e-4 -0.70188,0.31415 -0.70177,0.70177 2.4e-4,0.38737 0.3144,0.70136 0.70177,0.70124 0.38712,-2.3e-4 0.7005,-0.31412 0.70073,-0.70124 1.2e-4,-0.38738 -0.31336,-0.70154 -0.70073,-0.70177 z m -246.514672,0.36535 c -0.387617,-1.1e-4 -0.701884,0.31415 -0.701766,0.70177 2.32e-4,0.38737 0.314396,0.70137 0.701766,0.70125 0.387122,-2.3e-4 0.701018,-0.31413 0.701249,-0.70125 1.18e-4,-0.38738 -0.313879,-0.70154 -0.701249,-0.70177 z m 16.9333332,0 c -0.3876162,-1.1e-4 -0.7018839,0.31415 -0.7017659,0.70177 2.32e-4,0.38737 0.3143967,0.70137 0.7017659,0.70125 0.3871232,-2.3e-4 0.7010182,-0.31413 0.7012492,-0.70125 1.18e-4,-0.38738 -0.313878,-0.70154 -0.7012492,-0.70177 z m 16.9333338,0 c -0.387617,-1.1e-4 -0.701884,0.31415 -0.701766,0.70177 2.32e-4,0.38737 0.314396,0.70137 0.701766,0.70125 0.387122,-2.3e-4 0.701018,-0.31413 0.701249,-0.70125 1.18e-4,-0.38738 -0.313879,-0.70154 -0.701249,-0.70177 z m 16.933333,0 c -0.387617,-1.1e-4 -0.701884,0.31415 -0.701766,0.70177 2.32e-4,0.38737 0.314396,0.70137 0.701766,0.70125 0.387122,-2.3e-4 0.701018,-0.31413 0.701249,-0.70125 1.18e-4,-0.38738 -0.313879,-0.70154 -0.701249,-0.70177 z m 16.933333,0 c -0.387615,-1.1e-4 -0.701884,0.31415 -0.701766,0.70177 2.32e-4,0.38737 0.314398,0.70137 0.701766,0.70125 0.387124,-2.3e-4 0.701018,-0.31413 0.701249,-0.70125 1.18e-4,-0.38738 -0.313877,-0.70154 -0.701249,-0.70177 z m 16.933334,0 c -0.387617,-1.1e-4 -0.701884,0.31415 -0.701766,0.70177 2.32e-4,0.38737 0.314396,0.70137 0.701766,0.70125 0.387122,-2.3e-4 0.701018,-0.31413 0.701249,-0.70125 1.18e-4,-0.38738 -0.313879,-0.70154 -0.701249,-0.70177 z m 16.933333,0 c -0.387617,-1.1e-4 -0.701884,0.31415 -0.701766,0.70177 2.32e-4,0.38737 0.314396,0.70137 0.701766,0.70125 0.387122,-2.3e-4 0.701018,-0.31413 0.701249,-0.70125 1.18e-4,-0.38738 -0.313879,-0.70154 -0.701249,-0.70177 z m 16.933333,0 c -0.387615,-1.1e-4 -0.701884,0.31415 -0.701766,0.70177 2.32e-4,0.38737 0.314398,0.70137 0.701766,0.70125 0.387124,-2.3e-4 0.701018,-0.31413 0.701249,-0.70125 1.18e-4,-0.38738 -0.313877,-0.70154 -0.701249,-0.70177 z m 16.933329,0 c -0.38762,-1.1e-4 -0.70188,0.31415 -0.70176,0.70177 2.3e-4,0.38737 0.31439,0.70137 0.70176,0.70125 0.38712,-2.3e-4 0.70102,-0.31413 0.70125,-0.70125 1.2e-4,-0.38738 -0.31388,-0.70154 -0.70125,-0.70177 z m 16.93334,0 c -0.38762,-1.1e-4 -0.70189,0.31415 -0.70177,0.70177 2.3e-4,0.38737 0.3144,0.70137 0.70177,0.70125 0.38712,-2.3e-4 0.70102,-0.31413 0.70125,-0.70125 1.2e-4,-0.38738 -0.31388,-0.70154 -0.70125,-0.70177 z m 16.93333,0 c -0.38762,-1.1e-4 -0.70188,0.31415 -0.70176,0.70177 2.3e-4,0.38737 0.31439,0.70137 0.70176,0.70125 0.38712,-2.3e-4 0.70102,-0.31413 0.70125,-0.70125 1.2e-4,-0.38738 -0.31388,-0.70154 -0.70125,-0.70177 z m 16.93333,0 c -0.38762,-1.1e-4 -0.70188,0.31415 -0.70176,0.70177 2.3e-4,0.38737 0.31439,0.70137 0.70176,0.70125 0.38712,-2.3e-4 0.70102,-0.31413 0.70125,-0.70125 1.1e-4,-0.38738 -0.31388,-0.70154 -0.70125,-0.70177 z m 16.93334,0 c -0.38761,-1.1e-4 -0.70189,0.31415 -0.70177,0.70177 2.3e-4,0.38737 0.3144,0.70137 0.70177,0.70125 0.38713,-2.3e-4 0.70102,-0.31413 0.70125,-0.70125 1.2e-4,-0.38738 -0.31388,-0.70154 -0.70125,-0.70177 z m 16.93333,0 c -0.38761,-1.1e-4 -0.70188,0.31415 -0.70176,0.70177 2.3e-4,0.38737 0.3144,0.70137 0.70176,0.70125 0.38713,-2.3e-4 0.70102,-0.31413 0.70125,-0.70125 1.2e-4,-0.38738 -0.31387,-0.70154 -0.70125,-0.70177 z m 16.93333,0 c -0.38762,-1.1e-4 -0.70188,0.31415 -0.70176,0.70177 2.3e-4,0.38737 0.31439,0.70137 0.70176,0.70125 0.38712,-2.3e-4 0.70102,-0.31413 0.70125,-0.70125 1.2e-4,-0.38738 -0.31388,-0.70154 -0.70125,-0.70177 z m 16.93334,0 c -0.38761,-1.1e-4 -0.70189,0.31415 -0.70177,0.70177 2.3e-4,0.38737 0.3144,0.70137 0.70177,0.70125 0.38713,-2.3e-4 0.70102,-0.31413 0.70125,-0.70125 1.2e-4,-0.38738 -0.31388,-0.70154 -0.70125,-0.70177 z m -267.608991,0.11007 c -0.494363,2.2e-4 -0.894671,0.40119 -0.894519,0.89556 -1.52e-4,0.49434 0.400156,0.89533 0.894519,0.89555 0.494626,1.5e-4 0.895705,-0.40095 0.895553,-0.89555 1.52e-4,-0.49463 -0.400927,-0.89571 -0.895553,-0.89556 z m 16.933334,0 c -0.494365,2.2e-4 -0.894671,0.40119 -0.894519,0.89556 -1.52e-4,0.49434 0.400154,0.89533 0.894519,0.89555 0.494624,1.5e-4 0.895704,-0.40095 0.895552,-0.89555 1.52e-4,-0.49463 -0.400928,-0.89571 -0.895552,-0.89556 z m 16.9333331,0 c -0.494364,2.2e-4 -0.894671,0.40119 -0.894519,0.89556 -1.52e-4,0.49434 0.400155,0.89533 0.894519,0.89555 0.494625,1.5e-4 0.8957046,-0.40095 0.8955526,-0.89555 1.52e-4,-0.49463 -0.4009276,-0.89571 -0.8955526,-0.89556 z m 16.9333329,0 c -0.494363,2.2e-4 -0.894671,0.40119 -0.894519,0.89556 -1.52e-4,0.49434 0.400156,0.89533 0.894519,0.89555 0.494626,1.5e-4 0.895705,-0.40095 0.895553,-0.89555 1.52e-4,-0.49463 -0.400927,-0.89571 -0.895553,-0.89556 z m 16.933334,0 c -0.494365,2.2e-4 -0.894671,0.40119 -0.894519,0.89556 -1.52e-4,0.49434 0.400154,0.89533 0.894519,0.89555 0.494624,1.5e-4 0.895704,-0.40095 0.895552,-0.89555 1.52e-4,-0.49463 -0.400928,-0.89571 -0.895552,-0.89556 z m 16.933333,0 c -0.494363,2.2e-4 -0.894671,0.40119 -0.894519,0.89556 -1.52e-4,0.49434 0.400156,0.89533 0.894519,0.89555 0.494626,1.5e-4 0.895705,-0.40095 0.895553,-0.89555 1.52e-4,-0.49463 -0.400927,-0.89571 -0.895553,-0.89556 z m 16.933333,0 c -0.494363,2.2e-4 -0.894671,0.40119 -0.894519,0.89556 -1.52e-4,0.49434 0.400156,0.89533 0.894519,0.89555 0.494626,1.5e-4 0.895705,-0.40095 0.895553,-0.89555 1.52e-4,-0.49463 -0.400927,-0.89571 -0.895553,-0.89556 z m 16.933334,0 c -0.494365,2.2e-4 -0.894671,0.40119 -0.894519,0.89556 -1.52e-4,0.49434 0.400154,0.89533 0.894519,0.89555 0.494624,1.5e-4 0.895704,-0.40095 0.895552,-0.89555 1.52e-4,-0.49463 -0.400928,-0.89571 -0.895552,-0.89556 z m 16.933333,0 c -0.494359,2.2e-4 -0.894669,0.40119 -0.894519,0.89556 -1.5e-4,0.49434 0.40016,0.89533 0.894519,0.89555 0.49463,1.5e-4 0.895703,-0.40095 0.895553,-0.89555 1.5e-4,-0.49463 -0.400923,-0.89571 -0.895553,-0.89556 z m 16.933334,0 c -0.49436,2.2e-4 -0.89467,0.40119 -0.89452,0.89556 -1.5e-4,0.49434 0.40016,0.89533 0.89452,0.89555 0.49463,1.5e-4 0.8957,-0.40095 0.89555,-0.89555 1.5e-4,-0.49463 -0.40092,-0.89571 -0.89555,-0.89556 z m 16.93333,0 c -0.49437,2.2e-4 -0.89467,0.40119 -0.89452,0.89556 -1.5e-4,0.49434 0.40015,0.89533 0.89452,0.89555 0.49462,1.5e-4 0.89571,-0.40095 0.89556,-0.89555 1.5e-4,-0.49463 -0.40094,-0.89571 -0.89556,-0.89556 z m 16.93334,0 c -0.49436,2.2e-4 -0.89467,0.40119 -0.89452,0.89556 -1.5e-4,0.49434 0.40016,0.89533 0.89452,0.89555 0.49463,1.5e-4 0.8957,-0.40095 0.89555,-0.89555 1.5e-4,-0.49463 -0.40092,-0.89571 -0.89555,-0.89556 z m 16.93333,0 c -0.49436,2.2e-4 -0.89467,0.40119 -0.89452,0.89556 -1.5e-4,0.49434 0.40016,0.89533 0.89452,0.89555 0.49463,1.5e-4 0.89571,-0.40095 0.89555,-0.89555 1.6e-4,-0.49463 -0.40092,-0.89571 -0.89555,-0.89556 z m 16.93333,0 c -0.49437,2.2e-4 -0.89468,0.40119 -0.89452,0.89556 -1.6e-4,0.49434 0.40015,0.89533 0.89452,0.89555 0.49462,1.5e-4 0.89571,-0.40095 0.89556,-0.89555 1.5e-4,-0.49463 -0.40094,-0.89571 -0.89556,-0.89556 z m 16.93334,0 c -0.49436,2.2e-4 -0.89467,0.40119 -0.89452,0.89556 -1.5e-4,0.49434 0.40016,0.89533 0.89452,0.89555 0.49463,1.5e-4 0.8957,-0.40095 0.89555,-0.89555 1.5e-4,-0.49463 -0.40092,-0.89571 -0.89555,-0.89556 z m 16.93333,0 c -0.49436,2.2e-4 -0.89467,0.40119 -0.89452,0.89556 -1.5e-4,0.49434 0.40016,0.89533 0.89452,0.89555 0.49463,1.5e-4 0.8957,-0.40095 0.89555,-0.89555 1.5e-4,-0.49463 -0.40092,-0.89571 -0.89555,-0.89556 z m -115.00125,0.67128 v 0.002 c -1.30946,0.003 -2.477863,0.68656 -2.926953,1.71255 -0.28932,-0.16346 -0.615963,-0.24943 -0.948262,-0.24959 -0.70036,0.002 -1.344542,0.38375 -1.683102,0.99683 -0.0222,-0.0622 -0.04778,-0.12323 -0.07648,-0.18293 -0.311538,-0.72643 -1.048956,-1.20207 -1.869136,-1.20561 -0.991901,10e-4 -1.837721,0.68838 -2.000395,1.62522 -0.07017,-0.008 -0.140735,-0.0124 -0.211357,-0.0124 -0.394008,0.002 -0.777655,0.13023 -1.09709,0.36794 -0.329776,-0.62732 -0.966498,-1.01808 -1.658814,-1.01803 -0.503046,0.002 -0.984507,0.21086 -1.337386,0.58033 1.77e-4,-0.003 3.5e-4,-0.005 5.17e-4,-0.008 6.2e-5,-1.43955 -1.399013,-2.60656 -3.124874,-2.60656 -1.309466,0.003 -2.477861,0.68656 -2.926953,1.71255 -0.289323,-0.16346 -0.615958,-0.24943 -0.948263,-0.24959 -0.700359,0.002 -1.344539,0.38375 -1.683101,0.99683 -0.02225,-0.0622 -0.04777,-0.12323 -0.07648,-0.18293 -0.311538,-0.72643 -1.048957,-1.20207 -1.869137,-1.20561 -0.991901,10e-4 -1.837721,0.68838 -2.000395,1.62522 -0.07017,-0.008 -0.140734,-0.0124 -0.211356,-0.0124 -0.39401,0.002 -0.777654,0.13023 -1.097091,0.36794 -0.329774,-0.62732 -0.966497,-1.01808 -1.658813,-1.01803 -0.503048,0.002 -0.984509,0.21086 -1.337386,0.58033 1.77e-4,-0.003 3.49e-4,-0.005 5.16e-4,-0.008 6.2e-5,-1.43955 -1.399012,-2.60656 -3.124873,-2.60656 -1.309466,0.003 -2.47786,0.68656 -2.926954,1.71255 -0.289321,-0.16346 -0.615957,-0.24943 -0.948262,-0.24959 -0.700359,0.002 -1.344541,0.38375 -1.683101,0.99683 -0.02225,-0.0622 -0.04777,-0.12323 -0.07648,-0.18293 -0.311536,-0.72643 -1.048956,-1.20207 -1.869136,-1.20561 -0.991901,10e-4 -1.837721,0.68838 -2.000395,1.62522 -0.07017,-0.008 -0.140736,-0.0124 -0.211356,-0.0124 -0.39401,0.002 -0.777654,0.13023 -1.097091,0.36794 -0.329776,-0.62732 -0.966496,-1.01808 -1.658814,-1.01803 -0.503046,0.002 -0.984507,0.21086 -1.337386,0.58033 1.77e-4,-0.003 3.5e-4,-0.005 5.17e-4,-0.008 6.2e-5,-1.43955 -1.399011,-2.60656 -3.124874,-2.60656 -1.309464,0.003 -2.477859,0.68656 -2.926953,1.71255 -0.289323,-0.16346 -0.615959,-0.24943 -0.948262,-0.24959 -0.700361,0.002 -1.34454,0.38375 -1.683102,0.99683 -0.02225,-0.0622 -0.04777,-0.12323 -0.07648,-0.18293 -0.311538,-0.72643 -1.048956,-1.20207 -1.869136,-1.20561 -0.991901,10e-4 -1.837721,0.68838 -2.000395,1.62522 -0.07017,-0.008 -0.140735,-0.0124 -0.211357,-0.0124 -0.394008,0.002 -0.777655,0.13023 -1.09709,0.36794 -0.329776,-0.62732 -0.966498,-1.01808 -1.658814,-1.01803 -0.503046,0.002 -0.984507,0.21086 -1.337386,0.58033 1.77e-4,-0.003 3.5e-4,-0.005 5.17e-4,-0.008 6.2e-5,-1.43955 -1.399013,-2.60656 -3.124874,-2.60656 -1.309466,0.003 -2.477861,0.68656 -2.926953,1.71255 -0.289323,-0.16346 -0.615958,-0.24943 -0.948263,-0.24959 -0.700359,0.002 -1.344539,0.38375 -1.683101,0.99683 -0.02225,-0.0622 -0.04777,-0.12323 -0.07648,-0.18293 -0.311538,-0.72643 -1.048957,-1.20207 -1.869137,-1.20561 -0.991901,0.001 -1.837721,0.68838 -2.000395,1.62522 -0.07017,-0.008 -0.140734,-0.0124 -0.211356,-0.0124 -0.39401,0.002 -0.777654,0.13023 -1.097091,0.36794 -0.329774,-0.62732 -0.966497,-1.01808 -1.658813,-1.01803 -0.503048,0.002 -0.984509,0.21086 -1.337386,0.58033 1.77e-4,-0.003 3.49e-4,-0.005 5.16e-4,-0.008 6.2e-5,-1.43955 -1.399012,-2.60656 -3.124873,-2.60656 -1.309466,0.003 -2.47786,0.68656 -2.926954,1.71255 -0.289321,-0.16346 -0.615957,-0.24943 -0.948262,-0.24959 -0.700359,0.002 -1.344541,0.38375 -1.683101,0.99683 -0.02225,-0.0622 -0.04777,-0.12323 -0.07648,-0.18293 -0.311536,-0.72643 -1.048956,-1.20207 -1.869136,-1.20561 -0.9919014,0.001 -1.8377212,0.68838 -2.0003948,1.62522 -0.07017,-0.008 -0.1407348,-0.0124 -0.2113566,-0.0124 -0.3940094,0.002 -0.7776543,0.13023 -1.0970907,0.36794 -0.3297754,-0.62732 -0.9664969,-1.01808 -1.6588135,-1.01803 -0.503047,0.002 -0.9845078,0.21086 -1.337386,0.58033 1.77e-4,-0.003 3.497e-4,-0.005 5.167e-4,-0.008 6.2e-5,-1.43955 -1.3990123,-2.60656 -3.12487385,-2.60656 -1.30946538,0.003 -2.47785995,0.68656 -2.92695315,1.71255 -0.2893224,-0.16346 -0.6159581,-0.24943 -0.9482625,-0.24959 -0.7003596,0.002 -1.34454,0.38375 -1.6831014,0.99683 -0.02225,-0.0622 -0.047771,-0.12323 -0.076481,-0.18293 -0.3115374,-0.72643 -1.0489562,-1.20207 -1.8691366,-1.20561 -0.991901,0.001 -1.8377209,0.68838 -2.0003947,1.62522 -0.07017,-0.008 -0.1407348,-0.0124 -0.2113566,-0.0124 -0.3940092,0.002 -0.7776544,0.13023 -1.0970906,0.36794 -0.3297757,-0.62732 -0.9664977,-1.01808 -1.6588137,-1.01803 -0.503046,0.002 -0.984507,0.21086 -1.337386,0.58033 1.77e-4,-0.003 3.5e-4,-0.005 5.17e-4,-0.008 6.2e-5,-1.43955 -1.399013,-2.60656 -3.124874,-2.60656 -1.309466,0.003 -2.477861,0.68656 -2.926953,1.71255 -0.289323,-0.16346 -0.615958,-0.24943 -0.948263,-0.24959 -0.700359,0.002 -1.344539,0.38375 -1.683101,0.99683 -0.02225,-0.0622 -0.04777,-0.12323 -0.07648,-0.18293 -0.311538,-0.72643 -1.048957,-1.20207 -1.869137,-1.20561 -0.991901,0.001 -1.837721,0.68838 -2.000395,1.62522 -0.07017,-0.008 -0.140734,-0.0124 -0.211356,-0.0124 -0.39401,0.002 -0.777654,0.13023 -1.097091,0.36794 -0.329774,-0.62732 -0.966497,-1.01808 -1.658813,-1.01803 -0.503048,0.002 -0.984509,0.21086 -1.337386,0.58033 1.77e-4,-0.003 3.49e-4,-0.005 5.16e-4,-0.008 6.2e-5,-1.43955 -1.399012,-2.60656 -3.124873,-2.60656 -1.309466,0.003 -2.47786,0.68656 -2.926954,1.71255 -0.289321,-0.16346 -0.615957,-0.24943 -0.948262,-0.24959 -0.700359,0.002 -1.344541,0.38375 -1.683101,0.99683 -0.02225,-0.0622 -0.04777,-0.12323 -0.07648,-0.18293 v 0.96945 0.92087 3.31246 H -21.72011 -4.7867768 12.146556 29.07989 46.013223 62.946556 79.87989 h 16.933333 16.933337 16.93333 16.93333 16.93334 16.93333 16.93333 16.93334 16.93333 v -3.31246 -0.92087 -0.96945 c -0.31153,-0.72643 -1.04896,-1.20207 -1.86914,-1.20561 -0.9919,10e-4 -1.83771,0.68838 -2.00039,1.62522 -0.0702,-0.008 -0.14074,-0.0124 -0.21136,-0.0124 -0.39401,0.002 -0.77766,0.13023 -1.09709,0.36794 -0.32978,-0.62732 -0.96649,-1.01808 -1.65881,-1.01803 -0.50304,0.002 -0.98451,0.21086 -1.33739,0.58033 1.7e-4,-0.003 3.6e-4,-0.005 5.2e-4,-0.008 7e-5,-1.43955 -1.39902,-2.60656 -3.12488,-2.60656 -1.30947,0.003 -2.47786,0.68656 -2.92695,1.71255 -0.28933,-0.16346 -0.61595,-0.24943 -0.94826,-0.24959 -0.70036,0.002 -1.34454,0.38375 -1.6831,0.99683 -0.0222,-0.0622 -0.0478,-0.12323 -0.0765,-0.18293 -0.31154,-0.72643 -1.04896,-1.20207 -1.86914,-1.20561 -0.99191,10e-4 -1.83773,0.68838 -2.0004,1.62522 -0.0702,-0.008 -0.14072,-0.0124 -0.21135,-0.0124 -0.39401,0.002 -0.77765,0.13023 -1.09709,0.36794 -0.32977,-0.62732 -0.9665,-1.01808 -1.65882,-1.01803 -0.50305,0.002 -0.9845,0.21086 -1.33738,0.58033 1.8e-4,-0.003 3.4e-4,-0.005 5.1e-4,-0.008 6e-5,-1.43955 -1.39901,-2.60656 -3.12487,-2.60656 -1.30947,0.003 -2.47785,0.68657 -2.92695,1.71256 -0.28932,-0.16346 -0.61596,-0.24944 -0.94827,-0.2496 -0.70035,0.002 -1.34454,0.38375 -1.6831,0.99684 -0.0223,-0.0622 -0.0478,-0.12324 -0.0765,-0.18294 -0.31154,-0.72643 -1.04895,-1.20207 -1.86913,-1.20561 -0.9919,10e-4 -1.83773,0.68839 -2.0004,1.62523 -0.0702,-0.008 -0.14074,-0.0124 -0.21136,-0.0124 -0.39401,0.002 -0.77765,0.13023 -1.09709,0.36794 -0.32977,-0.62732 -0.96649,-1.01808 -1.65881,-1.01803 -0.50305,0.002 -0.98451,0.21086 -1.33739,0.58033 1.8e-4,-0.003 3.5e-4,-0.005 5.2e-4,-0.008 6e-5,-1.43955 -1.39901,-2.60656 -3.12487,-2.60656 -1.30947,0.003 -2.47786,0.68657 -2.92696,1.71256 -0.28932,-0.16346 -0.61596,-0.24944 -0.94826,-0.2496 -0.70036,0.002 -1.34454,0.38375 -1.6831,0.99684 -0.0222,-0.0622 -0.0478,-0.12324 -0.0765,-0.18294 -0.31154,-0.72643 -1.04896,-1.20207 -1.86914,-1.20561 -0.9919,0.001 -1.83772,0.68839 -2.00039,1.62523 -0.0702,-0.008 -0.14074,-0.0124 -0.21136,-0.0124 -0.39401,0.002 -0.77765,0.13023 -1.09709,0.36794 -0.32978,-0.62732 -0.9665,-1.01808 -1.65881,-1.01803 -0.50305,0.002 -0.98451,0.21086 -1.33739,0.58033 1.8e-4,-0.003 3.5e-4,-0.005 5.2e-4,-0.008 6e-5,-1.43955 -1.39901,-2.60656 -3.12488,-2.60656 -1.30946,0.003 -2.47786,0.68657 -2.92695,1.71256 -0.28932,-0.16346 -0.61596,-0.24944 -0.94826,-0.2496 -0.70036,0.002 -1.34454,0.38375 -1.6831,0.99684 -0.0223,-0.0622 -0.0478,-0.12323 -0.0765,-0.18293 -0.31154,-0.72643 -1.04896,-1.20207 -1.86914,-1.20561 -0.9919,10e-4 -1.83772,0.68838 -2.0004,1.62522 -0.0702,-0.008 -0.14073,-0.0124 -0.21135,-0.0124 -0.39401,0.002 -0.77766,0.13022 -1.09709,0.36793 -0.32978,-0.62732 -0.9665,-1.01807 -1.65882,-1.01802 -0.50304,0.002 -0.9845,0.21085 -1.33738,0.58032 1.8e-4,-0.003 3.5e-4,-0.005 5.1e-4,-0.008 7e-5,-1.43955 -1.39901,-2.60656 -3.12487,-2.60656 -1.30947,0.003 -2.47786,0.68657 -2.92695,1.71256 -0.28932,-0.16346 -0.61597,-0.24944 -0.94827,-0.2496 -0.70035,0.002 -1.34453,0.38375 -1.6831,0.99684 -0.0222,-0.0622 -0.0478,-0.12323 -0.0765,-0.18293 -0.31153,-0.72643 -1.04896,-1.20207 -1.86913,-1.20561 -0.9919,10e-4 -1.83772,0.68838 -2.0004,1.62522 -0.0702,-0.008 -0.14074,-0.0124 -0.21136,-0.0124 -0.39401,0.002 -0.77766,0.13022 -1.09709,0.36793 -0.32978,-0.62732 -0.96649,-1.01807 -1.65881,-1.01802 -0.50305,0.002 -0.98451,0.21085 -1.33739,0.58032 1.7e-4,-0.003 3.6e-4,-0.005 5.2e-4,-0.008 7e-5,-1.43955 -1.39901,-2.60656 -3.12487,-2.60656 -1.30947,0.003 -2.47787,0.68656 -2.92696,1.71255 -0.28933,-0.16346 -0.61595,-0.24943 -0.94826,-0.24959 -0.70036,0.002 -1.34454,0.38375 -1.6831,0.99683 -0.0223,-0.0622 -0.0478,-0.12323 -0.0765,-0.18293 -0.31154,-0.72643 -1.04895,-1.20207 -1.86914,-1.20561 -0.9919,0.001 -1.83772,0.68838 -2.00039,1.62522 -0.0702,-0.008 -0.14073,-0.0124 -0.21136,-0.0124 -0.39401,0.002 -0.77765,0.13023 -1.09709,0.36794 -0.32977,-0.62732 -0.96649,-1.01808 -1.65881,-1.01803 -0.50305,0.002 -0.98451,0.21086 -1.33739,0.58033 1.8e-4,-0.003 3.5e-4,-0.005 5.2e-4,-0.008 6e-5,-1.43955 -1.39902,-2.60656 -3.12488,-2.60656 -1.30947,0.003 -2.47785,0.68656 -2.92695,1.71255 -0.28932,-0.16346 -0.61595,-0.24943 -0.94826,-0.24959 -0.70036,0.002 -1.34454,0.38375 -1.6831,0.99683 -0.0222,-0.0622 -0.0478,-0.12323 -0.0765,-0.18293 -0.31154,-0.72643 -1.04896,-1.20207 -1.86914,-1.20561 -0.9919,0.001 -1.83773,0.68838 -2.0004,1.62522 -0.0702,-0.008 -0.14073,-0.0124 -0.21135,-0.0124 -0.39401,0.002 -0.77765,0.13023 -1.09709,0.36794 -0.32977,-0.62732 -0.96651,-1.01808 -1.65882,-1.01803 -0.50305,0.002 -0.9845,0.21086 -1.33738,0.58033 1.8e-4,-0.003 3.4e-4,-0.005 5.1e-4,-0.008 6e-5,-1.43955 -1.399,-2.60656 -3.12487,-2.60656 z m -129.231905,0.38654 c -0.494363,2.2e-4 -0.895188,0.40067 -0.895036,0.89504 -1.52e-4,0.49434 0.400673,0.89533 0.895036,0.89555 0.494626,1.5e-4 0.895188,-0.40095 0.895036,-0.89555 1.52e-4,-0.49463 -0.40041,-0.89519 -0.895036,-0.89504 z m 16.9333335,0 c -0.4943645,2.2e-4 -0.8951875,0.40067 -0.8950355,0.89504 -1.52e-4,0.49434 0.400671,0.89533 0.8950355,0.89555 0.494625,1.5e-4 0.8951878,-0.40095 0.8950358,-0.89555 1.52e-4,-0.49463 -0.4004108,-0.89519 -0.8950358,-0.89504 z m 16.9333333,0 c -0.494364,2.2e-4 -0.8951878,0.40067 -0.8950358,0.89504 -1.52e-4,0.49434 0.4006718,0.89533 0.8950358,0.89555 0.494625,1.5e-4 0.8951878,-0.40095 0.8950358,-0.89555 1.52e-4,-0.49463 -0.4004108,-0.89519 -0.8950358,-0.89504 z m 16.9333332,0 c -0.494363,2.2e-4 -0.895188,0.40067 -0.895036,0.89504 -1.52e-4,0.49434 0.400673,0.89533 0.895036,0.89555 0.494626,1.5e-4 0.895188,-0.40095 0.895036,-0.89555 1.52e-4,-0.49463 -0.40041,-0.89519 -0.895036,-0.89504 z m 16.933333,0 c -0.494363,2.2e-4 -0.895187,0.40067 -0.895035,0.89504 -1.52e-4,0.49434 0.400672,0.89533 0.895035,0.89555 0.494626,1.5e-4 0.895188,-0.40095 0.895036,-0.89555 1.52e-4,-0.49463 -0.40041,-0.89519 -0.895036,-0.89504 z m 16.933334,0 c -0.494365,2.2e-4 -0.895188,0.40067 -0.895036,0.89504 -1.52e-4,0.49434 0.400671,0.89533 0.895036,0.89555 0.494624,1.5e-4 0.895188,-0.40095 0.895036,-0.89555 1.52e-4,-0.49463 -0.400412,-0.89519 -0.895036,-0.89504 z m 16.933333,0 c -0.494363,2.2e-4 -0.895188,0.40067 -0.895036,0.89504 -1.52e-4,0.49434 0.400673,0.89533 0.895036,0.89555 0.494626,1.5e-4 0.895188,-0.40095 0.895036,-0.89555 1.52e-4,-0.49463 -0.40041,-0.89519 -0.895036,-0.89504 z m 16.933333,0 c -0.494363,2.2e-4 -0.895187,0.40067 -0.895035,0.89504 -1.52e-4,0.49434 0.400672,0.89533 0.895035,0.89555 0.494626,1.5e-4 0.895188,-0.40095 0.895036,-0.89555 1.52e-4,-0.49463 -0.40041,-0.89519 -0.895036,-0.89504 z m 16.933332,0 c -0.49437,2.2e-4 -0.89518,0.40067 -0.89503,0.89504 -1.5e-4,0.49434 0.40066,0.89533 0.89503,0.89555 0.49462,1.5e-4 0.89519,-0.40095 0.89504,-0.89555 1.5e-4,-0.49463 -0.40042,-0.89519 -0.89504,-0.89504 z m 16.93334,0 c -0.49437,2.2e-4 -0.89519,0.40067 -0.89504,0.89504 -1.5e-4,0.49434 0.40067,0.89533 0.89504,0.89555 0.49461,1.5e-4 0.89519,-0.40095 0.89503,-0.89555 1.6e-4,-0.49463 -0.40042,-0.89519 -0.89503,-0.89504 z m 16.93333,0 c -0.49436,2.2e-4 -0.8952,0.40067 -0.89504,0.89504 -1.6e-4,0.49434 0.40068,0.89533 0.89504,0.89555 0.49463,1.5e-4 0.89518,-0.40095 0.89503,-0.89555 1.5e-4,-0.49463 -0.4004,-0.89519 -0.89503,-0.89504 z m 16.93333,0 c -0.49436,2.2e-4 -0.89518,0.40067 -0.89503,0.89504 -1.5e-4,0.49434 0.40067,0.89533 0.89503,0.89555 0.49463,1.5e-4 0.89519,-0.40095 0.89504,-0.89555 1.5e-4,-0.49463 -0.40041,-0.89519 -0.89504,-0.89504 z m 16.93334,0 c -0.49437,2.2e-4 -0.89519,0.40067 -0.89504,0.89504 -1.5e-4,0.49434 0.40067,0.89533 0.89504,0.89555 0.49461,1.5e-4 0.89519,-0.40095 0.89503,-0.89555 1.6e-4,-0.49463 -0.40042,-0.89519 -0.89503,-0.89504 z m 16.93333,0 c -0.49436,2.2e-4 -0.8952,0.40067 -0.89504,0.89504 -1.6e-4,0.49434 0.40068,0.89533 0.89504,0.89555 0.49463,1.5e-4 0.89518,-0.40095 0.89503,-0.89555 1.5e-4,-0.49463 -0.4004,-0.89519 -0.89503,-0.89504 z m 16.93333,0 c -0.49437,2.2e-4 -0.89518,0.40067 -0.89503,0.89504 -1.5e-4,0.49434 0.40066,0.89533 0.89503,0.89555 0.49462,1.5e-4 0.89519,-0.40095 0.89504,-0.89555 1.5e-4,-0.49463 -0.40042,-0.89519 -0.89504,-0.89504 z m 16.93334,0 c -0.49437,2.2e-4 -0.89519,0.40067 -0.89504,0.89504 -1.5e-4,0.49434 0.40067,0.89533 0.89504,0.89555 0.49461,1.5e-4 0.89519,-0.40095 0.89503,-0.89555 1.6e-4,-0.49463 -0.40042,-0.89519 -0.89503,-0.89504 z" /></g></svg>
